<svg xmlns="http://www.w3.org/2000/svg" width="40" height="40" fill="none" viewBox="0 0 40 40"><rect width="40" height="40" fill="#a6e96d" rx="20"/><path stroke="#1d3209" stroke-linecap="round" stroke-linejoin="round" stroke-width="1.65" d="m20 27.5-.083-.125c-.58-.868-.869-1.302-1.251-1.617a3.3 3.3 0 0 0-1.148-.614C17.044 25 16.523 25 15.479 25h-1.146c-.933 0-1.4 0-1.756-.182a1.67 1.67 0 0 1-.729-.728c-.181-.357-.181-.823-.181-1.757v-7.166c0-.934 0-1.4.181-1.757a1.66 1.66 0 0 1 .729-.728c.356-.182.823-.182 1.756-.182h.334c1.867 0 2.8 0 3.513.363.627.32 1.137.83 1.457 1.457.363.713.363 1.646.363 3.513m0 9.667v-9.667m0 9.667.083-.125c.58-.868.869-1.302 1.251-1.617a3.3 3.3 0 0 1 1.148-.614c.474-.144.995-.144 2.039-.144h1.146c.933 0 1.4 0 1.756-.182.314-.16.569-.414.729-.728.181-.357.181-.823.181-1.757v-7.166c0-.934 0-1.4-.181-1.757a1.67 1.67 0 0 0-.729-.728c-.356-.182-.823-.182-1.756-.182h-.334c-1.866 0-2.8 0-3.513.363-.627.32-1.137.83-1.457 1.457C20 15.033 20 15.966 20 17.833"/></svg>