<svg xmlns="http://www.w3.org/2000/svg" width="32" height="32" fill="none" viewBox="0 0 32 32"><rect width="32" height="32" fill="#a6e96d" rx="16"/><path stroke="#1d3209" stroke-linecap="round" stroke-linejoin="round" stroke-width="1.333" d="M21.667 12.852 16 16m0 0-5.667-3.148M16 16v6.333m6-3.627v-5.412c0-.228 0-.342-.034-.444a.7.7 0 0 0-.142-.243c-.073-.079-.173-.134-.373-.245l-4.933-2.74c-.189-.106-.284-.158-.384-.179a.7.7 0 0 0-.268 0c-.1.02-.195.073-.384.178l-4.933 2.74c-.2.112-.3.167-.373.246a.7.7 0 0 0-.142.243c-.034.102-.034.216-.034.444v5.412c0 .228 0 .342.034.444q.046.137.142.243c.073.079.173.134.373.245l4.933 2.74c.19.106.284.158.384.179q.134.027.268 0c.1-.02.195-.073.384-.178l4.933-2.74c.2-.112.3-.167.373-.246a.7.7 0 0 0 .142-.243c.034-.102.034-.216.034-.444"/></svg>