<svg xmlns="http://www.w3.org/2000/svg" width="32" height="32" fill="none" viewBox="0 0 32 32"><rect width="32" height="32" fill="#a6e96d" rx="16"/><path stroke="#1d3209" stroke-linecap="round" stroke-linejoin="round" stroke-width="1.333" d="M18.667 12.667c0-.62 0-.93-.068-1.185a2 2 0 0 0-1.415-1.414C16.93 10 16.62 10 16 10s-.93 0-1.184.068a2 2 0 0 0-1.414 1.414c-.068.255-.068.565-.068 1.185M11.467 22h9.067c.746 0 1.12 0 1.405-.145.25-.128.455-.332.582-.583.146-.285.146-.659.146-1.405V14.8c0-.747 0-1.12-.146-1.405a1.33 1.33 0 0 0-.582-.583c-.285-.145-.659-.145-1.405-.145h-9.067c-.747 0-1.12 0-1.405.145a1.34 1.34 0 0 0-.583.583c-.145.285-.145.658-.145 1.405v5.067c0 .746 0 1.12.145 1.405.128.25.332.455.583.583.285.145.658.145 1.405.145"/></svg>