<svg xmlns="http://www.w3.org/2000/svg" width="40" height="40" fill="none" viewBox="0 0 40 40"><rect width="40" height="40" fill="#a6e96d" rx="20"/><path stroke="#1d3209" stroke-linecap="round" stroke-linejoin="round" stroke-width="1.65" d="M16.25 19.167h-2.417c-.466 0-.7 0-.878.09a.83.83 0 0 0-.364.365c-.091.178-.091.411-.091.878v7m11.25-8.333h2.417c.466 0 .7 0 .878.09.157.08.284.208.364.365.091.178.091.411.091.878v7m-3.75 0V15.167c0-.934 0-1.4-.182-1.757a1.67 1.67 0 0 0-.728-.728c-.357-.182-.823-.182-1.757-.182h-2.166c-.934 0-1.4 0-1.757.182-.314.16-.569.414-.728.728-.182.357-.182.823-.182 1.757V27.5m12.083 0H11.667m7.5-11.667h1.666m-1.666 3.334h1.666M19.167 22.5h1.666"/></svg>