<svg xmlns="http://www.w3.org/2000/svg" width="53" height="64" fill="none" viewBox="0 0 53 64"><path fill="#3c8e74" d="M16.302 62.477c11.963.734 23.984.492 35.909-.722a1.4 1.4 0 0 0-1.187-.657H39.439c-.701.267-1.416.491-2.151.65-1.967.424-4.118.328-5.87-.65H15.187c-.09.702.416 1.337 1.115 1.38m32.3-36.353c-.334-.85-.386-1.833-.075-2.681a2.88 2.88 0 0 0-2.492-.22c.07.481.04 1.009-.012 1.484q-.095.846-.193 1.697c1.19 1.498 1.9 3.403 2.333 5.297 1.473 6.439.274 13.148.372 19.765.45.236.942.355 1.446.437V28.08c-.59-.55-1.083-1.203-1.379-1.955m.236 1.58c-.178.14-.44.05-.63-.075-.357-.233-1.635-1.865-.574-1.795.599.04 1.914 1.311 1.204 1.87"/><path fill="#3c8e74" d="M48.196 42.978c.143-4.09-.002-8.268-1.346-12.128-.203-.584-.446-1.179-.893-1.602a1.8 1.8 0 0 0-.418-.293c-.705 6.347-1.193 12.77.592 18.818.348 1.18.842 2.406 1.705 3.199.059-2.664.267-5.33.36-7.994m-24.465-5.996c5.094-2.97 9.584-7.143 12.445-12.34 2.74-4.977 3.903-10.924 2.776-16.494l-.263-.496-1.915 2.78c-.863 1.849-1.848 3.644-2.83 5.432a7 7 0 0 1-.488.785l1.935.13q.01 0 .015.007a.02.02 0 0 1 .005.018c-.544 4.43-2.361 8.615-5.402 12.437-2.527 3.177-5.92 6.134-10.086 8.79q-.54.345-1.085.675l.074-.002c1.72-.063 3.328-.852 4.82-1.722m13.047-24.2c1.249.127.3 1.67-.2 2.134-.158.148-.34.28-.55.33-.209.05-.451.004-.594-.16-.605-.693.465-2.394 1.344-2.304"/><path fill="#3c8e74" d="M29.13 30.264c-2.945 3.392-6.606 6.184-10.337 8.443h.008c3.74-2.26 7.393-5.051 10.328-8.443m9.902 5.462a.64.64 0 0 0-.413.1c-.296.205-.42.58-.51.93a12 12 0 0 0-.355 2.119c.093-.466.22-.927.35-1.385.076-.263.156-.532.32-.75.144-.192.367-.339.6-.342-.014.968-.042 1.937-.046 2.9-.004 1.35.054 2.733.262 4.075a2.73 2.73 0 0 1-1.054-.946l-.027-.044q.224.655.584 1.257c.187.31.411.613.7.819.335 1.492.892 2.905 1.799 4.131q.147.2.305.39V39.9l-.054-.106c-.694-1.437-1.251-2.967-1.391-4.56-.096-1.094.018-2.222.39-3.248a2.9 2.9 0 0 0-1.722-.684c.232 1.453.273 2.935.262 4.424m.73 1.88c.478.494.733 1.384.86 2.048.037.198.046.444-.12.556-.102.068-.24.058-.349 0a.8.8 0 0 1-.261-.254c-.374-.526-.713-1.852-.13-2.35m-7.394 4.532c-.383-.546-.634-1.211-.58-1.878q.009-.1.028-.198a2.9 2.9 0 0 0-1.129-.46q.07 1.025.08 2.05v.002c.577.375.884 1.06 1.1 1.722 1.045 3.204.765 6.733-.21 9.96-.116.382-.292.814-.672.924a.6.6 0 0 1-.268.018c.075.646.211 1.287.547 1.836.39.634 1.116 1.11 1.836 1.022q.01-.122.01-.246V42.97a5.3 5.3 0 0 1-.742-.832"/><path fill="#3c8e74" d="M30.762 43.268c-.057 3.513-.385 7.039-.093 10.54l.007.081c.317-.175.566-.493.7-.839.193-.496.196-1.044.196-1.577 0-1.33 0-2.659-.026-3.988-.025-1.28-.08-2.59-.559-3.774a3 3 0 0 0-.225-.444m-8.025 13.907a34.4 34.4 0 0 1-.795-6.343c-.022-.69-.026-1.396-.264-2.042-.163-.445-.466-.86-.859-1.104-.2 2.607-.696 5.25.259 7.635.226.566.541 1.113 1.012 1.495.192.156.413.28.647.362z"/><path fill="#3c8e74" d="m24.205 52.878-.675-2.515c-.412-1.534-.827-3.112-.728-4.69a2.88 2.88 0 0 0-1.92-.068q.01.264.008.53a1 1 0 0 1 .14-.003c.365.025.682.29.864.611s.25.695.3 1.062c.34 2.513-.032 5.186.994 7.5.158.358.35.706.435 1.09.063.288.056.607-.064.87q.113-.015.224-.05c.344-.106.633-.33.89-.59v-2.909c-.241-.168-.385-.527-.468-.838m-9.269-.04a5.45 5.45 0 0 1-1.173-2.81 2.9 2.9 0 0 0-1.76.279c.174.45.297.919.39 1.395.187-.141.396-.235.542-.233.495.007.831.522.96 1.005.265.987.1 2.163.785 2.915.234.256.548.434.749.718.313.444.274 1.082-.018 1.54a1.95 1.95 0 0 1-.845.708c.271.228.57.417.89.548a2.97 2.97 0 0 0 .782-2.013v-3.37l-.005.001c-.504.094-.97-.284-1.297-.683"/><path fill="#3c8e74" d="M14.39 58.197c.159-.179.306-.367.42-.578.183-.34.27-.751.147-1.117-.112-.336-.38-.589-.608-.857a4.6 4.6 0 0 1-.91-1.666c-.086-.288-.146-.59-.293-.852-.111-.199-.296-.396-.52-.458a.4.4 0 0 0-.078-.013q.064.48.121.96c.148 1.203.33 2.434.901 3.5.213.397.492.769.82 1.081m-6.913-3.263c-.304-.028-.59-.158-.85-.317-.575-.35-1.07-.87-1.315-1.493a2.9 2.9 0 0 0-1.447.148c.007.78.157 1.551.533 2.226.558 1 1.699 1.722 2.818 1.526.201-.035.395-.098.586-.169v-.802c0-.394-.077-.77-.216-1.115q-.054.001-.11-.004"/><path fill="#317c63" d="M18.793 38.707a62 62 0 0 1-3.309 1.864 62 62 0 0 0 3.317-1.864zm-3.529 1.979.129-.067z"/><path fill="#317c63" d="M17.187 40.65c1.25-.233 2.581-.26 3.778.139q.626-.311 1.264-.645c6.814-3.568 11.442-9.638 14.125-14.103 2.907-4.838 4.22-8.883 4.232-8.923a.02.02 0 0 1 .022-.016l3.109.032-4.765-8.986c1.127 5.571-.036 11.518-2.776 16.495-2.861 5.197-7.351 9.37-12.445 12.34-1.491.87-3.099 1.659-4.819 1.721l-.074.002a65 65 0 0 1-5.84 3.127c1.396-.4 2.763-.916 4.19-1.182M4.398 55.497c-.376-.674-.526-1.446-.533-2.225a2.96 2.96 0 0 0-1.896 2.427c1.08 1.458 2.778 2.45 4.576 2.608.283.024.57.03.846.093.26-.443.41-.959.41-1.51v-.035c-.19.07-.384.133-.585.169-1.12.196-2.26-.526-2.818-1.527m19.162 1.768c.119-.263.127-.583.063-.87-.084-.384-.276-.732-.435-1.09-1.026-2.314-.654-4.987-.994-7.5-.05-.367-.118-.74-.3-1.062s-.499-.586-.864-.611a1 1 0 0 0-.14.002q.001-.265-.007-.53a2.96 2.96 0 0 0-2.064 2.832v.027c.37 1.242.526 2.551.552 3.852.024 1.21-.059 2.437.208 3.617.266 1.18.962 2.344 2.077 2.783.442.174.921.224 1.39.303.198.034.397.075.59.133a2.97 2.97 0 0 0 1.038-2.261v-.265c-.258.26-.547.484-.89.59a1.5 1.5 0 0 1-.225.05m-2.482-1.945c-.955-2.385-.459-5.028-.259-7.635.393.243.696.659.86 1.104.237.646.241 1.352.263 2.041a34.4 34.4 0 0 0 .795 6.344v.002a2.2 2.2 0 0 1-.647-.361c-.47-.383-.786-.93-1.012-1.495m10.187.794c-.337-.548-.473-1.19-.548-1.836a.6.6 0 0 0 .268-.018c.38-.11.556-.542.672-.924.975-3.227 1.255-6.756.21-9.96-.216-.662-.523-1.347-1.1-1.721v-.002a37 37 0 0 0-.08-2.05 3 3 0 0 0-.503-.045 2.92 2.92 0 0 0-2.562 1.53q.066.142.114.283c.688 1.994.652 4.163.518 6.27-.133 2.108-.354 4.238-.012 6.322s1.34 4.165 3.12 5.269q.159.096.324.2a2.97 2.97 0 0 0 1.414-2.296c-.72.087-1.447-.388-1.835-1.022m.282-8.628c.026 1.329.026 2.658.026 3.987 0 .533-.002 1.081-.195 1.577-.134.346-.384.665-.7.84l-.007-.082c-.293-3.501.035-7.027.092-10.54.09.14.165.293.226.443.478 1.185.533 2.495.558 3.775m7.692-4.112c-.207-1.343-.266-2.726-.261-4.075.003-.963.031-1.933.046-2.901-.233.003-.457.15-.6.341-.164.219-.244.488-.32.752-.13.457-.257.918-.35 1.384-.089 1.196.02 2.4.404 3.508l.027.044c.261.4.63.736 1.054.947"/><path fill="#317c63" d="M36.26 38.838c-.091.833-.26 1.674-.57 2.448v4.391a.8.8 0 0 1 .202.203c.145.214.2.474.252.728l.163.79c.139-.232.319-.456.576-.508.235-.048.48.066.65.235.172.17.283.39.392.606l.336.67.012.013c.27.308.453.683.632 1.053l.953 1.971c.126.262.254.526.334.804l.444.884c.257.511.521 1.067.428 1.632-.073.448-.371.836-.742 1.092a2 2 0 0 1-.144.091q.321.145.669.223c.226.05.462.077.698.104V48.98a10 10 0 0 1-.305-.39c-.906-1.225-1.463-2.639-1.798-4.13-.29-.207-.514-.51-.7-.82q-.36-.6-.585-1.257c-.441-.702-.588-1.564-.549-2.396.018-.374.071-.745.145-1.112.053-.716.176-1.43.355-2.118.09-.35.213-.725.509-.93a.64.64 0 0 1 .414-.1c.01-1.489-.031-2.972-.263-4.424q-.075-.004-.15-.004c-.652 0-1.254.217-1.741.582-.02.997-.234 1.994-.348 2.99-.15 1.317-.123 2.65-.268 3.967"/><path fill="#317c63" d="M37.222 47.854a1.1 1.1 0 0 0-.769.253l.403 1.958c.26 1.267.529 2.553 1.134 3.693q.126.238.276.466l.86.612a.5.5 0 0 0 .245.115c.208.016.344-.212.428-.406.275-.636.555-1.312.46-2a2 2 0 0 0-.067-.303L38.261 48.4c-.27-.302-.639-.533-1.04-.546m10.942-16.152c-.433-1.894-1.143-3.8-2.333-5.296v-.001q.099-.85.193-1.697c.053-.475.081-1.003.012-1.483a2.97 2.97 0 0 0-1.908 2.777v23.1c.718 2.349 1.909 4.599 3.78 6.069l.053.04q.367.285.77.527c.4.24.829.449 1.251.663v-4.497c-.504-.082-.995-.2-1.445-.437-.099-6.617 1.1-13.326-.373-19.765m-2.032 16.07c-1.786-6.047-1.298-12.47-.592-18.817.153.077.295.177.417.293.447.423.69 1.017.894 1.602 1.344 3.86 1.489 8.038 1.346 12.128-.093 2.664-.302 5.33-.36 7.993-.863-.792-1.357-2.02-1.705-3.199m6.079 13.984a221 221 0 0 1-35.908.721c-.7-.042-1.204-.677-1.115-1.379H5.733c.744 1.084 1.524 2.114 2.542 2.856h42.749c.778 0 1.41-.64 1.41-1.428 0-.284-.082-.548-.223-.77"/><path fill="#276d54" d="M1.969 55.7a3 3 0 0 0-.022.353v.837c0 1.634 1.313 2.963 2.927 2.963 1.07 0 2.007-.584 2.517-1.452-.276-.062-.563-.069-.846-.094-1.798-.157-3.496-1.15-4.576-2.607m10.032 1.376c-.378-.984-.488-2.05-.565-3.102-.073-.986-.121-1.982-.349-2.942a2.97 2.97 0 0 0-.704 1.924v3.934c0 1.633 1.313 2.962 2.927 2.962.419 0 .817-.09 1.177-.25-.154-.077-.32-.14-.472-.21-.953-.427-1.635-1.332-2.014-2.316m9.655 1.639c-1.115-.438-1.811-1.602-2.077-2.782-.267-1.18-.184-2.408-.208-3.618-.026-1.3-.181-2.61-.552-3.852v8.427c0 1.634 1.314 2.963 2.928 2.963.72 0 1.379-.265 1.889-.702a5 5 0 0 0-.59-.132c-.469-.08-.948-.13-1.39-.304m6.584-4.753c-.341-2.084-.12-4.213.013-6.32.133-2.109.17-4.277-.518-6.272a3 3 0 0 0-.114-.282 3 3 0 0 0-.366 1.432v14.37c0 1.633 1.313 2.963 2.927 2.963.55 0 1.064-.155 1.503-.422l-.324-.2c-1.78-1.103-2.778-3.185-3.12-5.269m11.937 1.978q.075-.041.144-.09c.37-.256.669-.644.742-1.092.093-.565-.17-1.121-.428-1.632l-.444-.884q.044.15.066.303c.096.687-.184 1.364-.46 2-.083.194-.219.422-.427.406a.5.5 0 0 1-.245-.115l-.86-.612a6 6 0 0 1-.276-.466c-.605-1.14-.873-2.427-1.134-3.693l-.403-1.958c.197-.161.438-.265.769-.254.4.014.77.245 1.039.547l-.337-.67c-.108-.215-.22-.435-.39-.605-.172-.17-.416-.283-.65-.235-.258.052-.438.276-.577.508l-.163-.79c-.051-.254-.107-.515-.252-.728a.8.8 0 0 0-.201-.203V56.89c0 1.634 1.313 2.963 2.927 2.963s2.927-1.33 2.927-2.963v-.623a7 7 0 0 1-.698-.104 3.4 3.4 0 0 1-.67-.222m-4.535-6.847v-.032z"/><path fill="#276d54" d="m39.859 51.438-.954-1.971c-.179-.37-.361-.745-.632-1.054l-.012-.013 1.931 3.842a5 5 0 0 0-.334-.804"/><path fill="#317c63" d="M15.41 57.647c.293-.458.332-1.096.018-1.54-.2-.283-.514-.461-.748-.718-.685-.751-.52-1.928-.784-2.915-.13-.483-.466-.998-.96-1.005-.147-.002-.356.092-.542.234a8 8 0 0 0-.392-1.396 3 3 0 0 0-.915.725c.228.96.276 1.956.349 2.942.077 1.053.187 2.119.565 3.102.379.984 1.061 1.89 2.014 2.317.152.068.318.133.472.209.37-.165.698-.404.969-.7a3.4 3.4 0 0 1-.89-.547 1.95 1.95 0 0 0 .845-.708m-1.84-.53c-.572-1.067-.753-2.297-.901-3.501-.04-.319-.077-.64-.12-.96a.4.4 0 0 1 .077.014c.224.062.408.258.52.457.146.262.207.564.293.852a4.6 4.6 0 0 0 .91 1.667c.229.267.496.52.608.856.122.366.035.778-.147 1.117a3 3 0 0 1-.42.578 4.3 4.3 0 0 1-.82-1.08"/><path fill="#276d54" d="M36.26 38.838c.146-1.318.12-2.65.27-3.967.113-.997.327-1.993.347-2.99a2.97 2.97 0 0 0-1.186 2.38v7.025c.31-.774.478-1.615.57-2.448M17.187 40.65c-1.426.267-2.793.782-4.188 1.183a79 79 0 0 1-11.815 4.46c-.102.029-.135.118-.122.195.013.076.074.15.18.143 2.839-.19 10.276-1.143 19.723-5.842-1.197-.4-2.527-.372-3.778-.139M5.733 61.098H1.456c-.778 0-1.411.64-1.411 1.428s.633 1.428 1.411 1.428h6.819c-1.017-.742-1.797-1.772-2.542-2.856"/><path fill="#56af91" d="m36.774 10.433-4.24 6.155.922.062c.184-.247.343-.521.488-.785.982-1.789 1.967-3.584 2.83-5.432m-.745 4.814c.21-.05.39-.182.549-.33.5-.465 1.448-2.007.2-2.135-.88-.09-1.949 1.612-1.344 2.306.143.163.385.21.595.16m12.499 8.196c-.311.848-.26 1.832.075 2.681.295.752.788 1.405 1.379 1.956v-2.079a2.97 2.97 0 0 0-1.454-2.558"/><path fill="#56af91" d="M47.634 25.835c-1.061-.07.218 1.562.575 1.796.19.123.45.214.629.074.71-.558-.605-1.83-1.204-1.87M40.1 35.234c.141 1.593.698 3.123 1.392 4.56l.054.107v-5.64c0-.913-.41-1.73-1.054-2.274-.373 1.025-.487 2.154-.391 3.247m-.211 4.723c.072.1.154.197.262.254s.247.068.349 0c.165-.112.157-.358.12-.556-.128-.664-.382-1.554-.86-2.048-.584.498-.245 1.824.13 2.35"/><path fill="#3c8e74" d="M37.753 38.875a7.5 7.5 0 0 0-.145 1.112c-.04.832.108 1.694.549 2.396-.383-1.107-.493-2.311-.404-3.508"/><path fill="#56af91" d="M22.803 45.673c-.1 1.578.316 3.156.727 4.69l.675 2.515c.084.311.227.67.469.838v-5.28a2.97 2.97 0 0 0-1.871-2.763m9.011-5.611a2 2 0 0 0-.027.198c-.054.667.197 1.333.58 1.879.215.305.47.578.742.832v-.45a2.97 2.97 0 0 0-1.295-2.459m-18.051 9.967a5.45 5.45 0 0 0 1.173 2.81c.326.399.794.776 1.297.683l.005-.001v-.565a2.96 2.96 0 0 0-2.475-2.927m-7.137 4.588c.262.159.547.289.85.317q.056.005.11.004a2.94 2.94 0 0 0-2.274-1.815c.246.624.74 1.145 1.314 1.494m30.662 7.131c.735-.159 1.45-.383 2.152-.65h-8.022c1.752.978 3.903 1.074 5.87.65"/><path fill="#276d54" d="m47.96 55.211-.053-.04c-1.871-1.47-3.062-3.72-3.78-6.068v7.787c0 1.634 1.313 2.963 2.927 2.963s2.927-1.33 2.927-2.963v-.49c-.422-.213-.85-.422-1.251-.662a8 8 0 0 1-.77-.527"/><path fill="#000" d="M1.018 46.496a.21.21 0 0 0 .227.181c1.69-.113 4.452-.445 8.026-1.385 4.301-1.132 8.668-2.85 12.979-5.107 3.013-1.578 5.854-3.772 8.444-6.52 2.073-2.2 3.99-4.756 5.699-7.6 2.817-4.688 4.138-8.634 4.231-8.917l3.13.032q.013 0 .02-.01a.02.02 0 0 0 0-.023l-5.062-9.548a.02.02 0 0 0-.019-.012.02.02 0 0 0-.02.01l-6.198 8.999a.02.02 0 0 0-.002.023q.006.011.019.013l2.872.191c-.64 5.16-2.915 9.536-6.039 13.214l-.157.183-.038.044c-2.936 3.392-6.59 6.183-10.328 8.443a62 62 0 0 1-3.41 1.912l-.127.067c-5.736 2.972-11.2 4.741-14.093 5.563a.213.213 0 0 0-.154.247m18.905-8.464c4.166-2.656 7.56-5.613 10.086-8.79 3.04-3.822 4.858-8.006 5.402-12.437a.023.023 0 0 0-.02-.026l-1.934-.129-.922-.061 4.239-6.155 1.915-2.781.263.495 4.765 8.986-3.109-.032a.02.02 0 0 0-.021.016c-.013.04-1.326 4.086-4.233 8.923-2.683 4.465-7.311 10.535-14.125 14.103q-.638.334-1.264.645c-9.447 4.7-16.884 5.652-19.723 5.843-.106.007-.167-.067-.18-.144s.02-.166.122-.195A79 79 0 0 0 13 41.833a65 65 0 0 0 5.84-3.127 56 56 0 0 0 1.084-.674M1.902 56.053v.837c0 1.659 1.333 3.008 2.972 3.008s2.973-1.35 2.973-3.008v-.837c0-1.659-1.334-3.009-2.973-3.009s-2.972 1.35-2.972 3.009m5.9.802v.035c0 .551-.15 1.068-.41 1.51a2.92 2.92 0 0 1-2.518 1.453c-1.614 0-2.927-1.33-2.927-2.963v-.837q0-.18.022-.354a2.96 2.96 0 0 1 1.896-2.427 2.9 2.9 0 0 1 1.446-.149 2.94 2.94 0 0 1 2.275 1.815c.138.344.216.72.216 1.115zm2.536-3.899v3.934c0 1.659 1.333 3.008 2.972 3.008s2.972-1.35 2.972-3.008v-3.934c0-1.659-1.333-3.009-2.972-3.009s-2.972 1.35-2.972 3.009m5.9.565v3.37a2.97 2.97 0 0 1-1.751 2.711c-.36.16-.758.25-1.177.25-1.614 0-2.927-1.328-2.927-2.962v-3.934a2.97 2.97 0 0 1 1.619-2.65 2.88 2.88 0 0 1 1.76-.277c1.4.22 2.476 1.449 2.476 2.927zm2.536-5.085v8.454c0 1.659 1.333 3.008 2.972 3.008s2.973-1.35 2.973-3.008v-8.454c0-1.66-1.334-3.009-2.973-3.009s-2.972 1.35-2.972 3.009m5.9 5.28v3.174a2.97 2.97 0 0 1-1.038 2.26c-.51.438-1.17.703-1.89.703-1.614 0-2.927-1.33-2.927-2.963v-8.454c0-1.33.87-2.458 2.064-2.831a2.9 2.9 0 0 1 1.92.068 2.97 2.97 0 0 1 1.87 2.763zM27.21 42.52v14.37c0 1.66 1.333 3.009 2.972 3.009s2.973-1.35 2.973-3.009V42.52c0-1.658-1.334-3.008-2.973-3.008s-2.972 1.35-2.972 3.008m5.9.451v13.92q-.001.123-.011.245a2.97 2.97 0 0 1-1.414 2.295c-.44.268-.953.422-1.503.422-1.614 0-2.927-1.329-2.927-2.963V42.52c0-.519.133-1.007.366-1.431a2.92 2.92 0 0 1 2.561-1.531 2.9 2.9 0 0 1 1.633.504 2.97 2.97 0 0 1 1.295 2.459zm5.508 16.927c1.64 0 2.973-1.35 2.973-3.008V34.261c0-1.659-1.334-3.008-2.973-3.008s-2.972 1.35-2.972 3.008v22.63c0 1.658 1.333 3.007 2.972 3.007m-1.74-28.017a2.89 2.89 0 0 1 3.613.106 2.97 2.97 0 0 1 1.055 2.274v22.63c0 1.633-1.314 2.962-2.928 2.962s-2.927-1.33-2.927-2.963V34.261c0-.974.467-1.84 1.186-2.38m7.205-5.879V56.89c0 1.659 1.333 3.008 2.972 3.008s2.972-1.35 2.972-3.008V26.002c0-1.659-1.333-3.008-2.972-3.008s-2.972 1.35-2.972 3.008m5.9 2.079V56.89c0 1.633-1.314 2.963-2.928 2.963s-2.927-1.33-2.927-2.963V26.002c0-1.271.795-2.357 1.908-2.777a2.88 2.88 0 0 1 2.493.219 2.97 2.97 0 0 1 1.453 2.558zm1.042 32.972H1.456c-.803 0-1.456.66-1.456 1.473S.653 64 1.456 64h49.568c.803 0 1.456-.66 1.456-1.474 0-.812-.653-1.473-1.456-1.473m0 2.902H1.456a1.42 1.42 0 0 1-1.411-1.429c0-.787.633-1.428 1.411-1.428h49.568c.498 0 .936.263 1.187.658.141.222.224.487.224.77a1.42 1.42 0 0 1-1.411 1.428"/><path fill="#ffc824" d="M45.38 5.41a.83.83 0 0 1 .595-.344c.369-.029.726.176.967.46.192.225.327.501.554.69.246.203.569.277.878.35s.632.157.867.374a.78.78 0 0 1 .25.562l.095.017c.478.08.965.121 1.432.255l.106.033a1 1 0 0 0-.028-.124c-.125-.465-.482-.89-.98-1.169-.245-.136-.518-.228-.782-.318l-.253-.087-1.178-.424a.02.02 0 0 1-.015-.023 24 24 0 0 1 .142-1.356q0-.011.01-.016a.02.02 0 0 1 .02-.002 4.5 4.5 0 0 1 .735.36l.058.036q.015.008.016.01l.013.013.082.062c.357.268.937.306 1.25-.102a1.02 1.02 0 0 0 .175-.848l-.158-.02c-.759-.107-1.565-.336-2.037-.947a1.8 1.8 0 0 1-.34-1.432A1.8 1.8 0 0 1 48.5.363a.84.84 0 0 0-.511-.306c-.488-.071-.896.21-1.039.717a24 24 0 0 0-.372 1.518.02.02 0 0 1-.02.018c-.355.02-.71.076-1.055.165-.643.167-1.199.518-1.56.971a7 7 0 0 0 1.438 1.963M47.5 2.86c.4-.48.987.425.703.765-.346.416-1.07-.324-.703-.765m-2.204 1.747q.007-.012.02-.015l.01.002.049-.06a.023.023 0 0 1 .004-.03 2 2 0 0 1 .252-.175l.025-.012a4 4 0 0 1 .4-.138l.167-.038.012-.002a.02.02 0 0 1 .02.006.02.02 0 0 1 .006.02c-.038.296-.07.593-.097.882a.023.023 0 0 1-.022.02l-.008-.001a7 7 0 0 1-.539-.238l-.134-.072a.02.02 0 0 1-.01-.012l-.103-.07-.01-.007a.02.02 0 0 1-.01-.013l-.016-.012-.002-.002-.004-.002c-.009-.007-.015-.021-.01-.031"/><path fill="#ffc824" d="M48 6.78c-.294-.09-.613-.129-.862-.309-.181-.13-.308-.321-.445-.497s-.3-.348-.513-.411a.49.49 0 0 0-.493.125 8.1 8.1 0 0 0 3.377 1.724 2.6 2.6 0 0 0-1.065-.633"/><path fill="#faa905" d="M45.437 6.05c.346.256.696.517.962.859.265.34.44.778.379 1.208-.062.43-.406.83-.834.861-.266.02-.523-.096-.753-.235a8 8 0 0 1-1.265-.286l-.06-.025-.113-.043a8 8 0 0 1-.793-.361.85.85 0 0 0-.685-.032.84.84 0 0 0-.498.452 1 1 0 0 0-.079.388c.253.068.492.218.73.34.703.36 1.495.497 2.28.566 1.91.168 3.848-.05 5.688-.596q.166-.05.342-.092.113-.13.2-.278c.18-.309.243-.641.186-.97l-.106-.033c-.466-.133-.953-.174-1.432-.254q-.048-.008-.095-.018a.78.78 0 0 0-.25-.562c-.234-.216-.557-.3-.866-.373-.31-.073-.633-.147-.879-.35-.227-.189-.362-.465-.553-.69-.241-.284-.599-.489-.967-.46a.83.83 0 0 0-.595.343 7 7 0 0 1-1.439-1.963 2 2 0 0 0-.242.375c-.13.26-.19.543-.183.825.091.048.176.11.259.171zm3.692 2.02-.014.006a7 7 0 0 1-1.215.475.023.023 0 0 1-.023-.021c-.018-.306-.03-.622-.036-.94q0-.012.009-.02a.02.02 0 0 1 .02-.002q.48.171.956.344.149.052.302.115a.02.02 0 0 1 .013.02.02.02 0 0 1-.012.022M46.18 5.562c.213.063.376.235.513.41.138.177.264.368.445.498.25.18.568.22.862.308.398.12.765.34 1.064.633a8.1 8.1 0 0 1-3.377-1.724.49.49 0 0 1 .493-.125"/><path fill="#ef9900" d="M44.707 9.742c-.784-.069-1.576-.206-2.279-.566-.237-.122-.477-.271-.73-.34a.91.91 0 0 0 .496.812c1.235.65 2.65.976 4.09.944h.001q.019.001.023.02c.074.515.165 1.028.27 1.523.098.459.432.892.956.825.263-.034.535-.201.692-.425a.68.68 0 0 0 .122-.54 24 24 0 0 1-.284-1.613.023.023 0 0 1 .017-.025q.417-.101.815-.242c.704-.248 1.404-.55 1.842-1.06q-.176.041-.342.091c-1.84.547-3.778.764-5.689.596"/><path fill="#ef9900" d="M44.253 6.088c.494.387 1.102.594 1.691.793l.108.037q.014.006.015.022c-.007.611.01 1.23.05 1.837a.02.02 0 0 1-.007.017.02.02 0 0 1-.016.007l-.046.001-.09.001-.091-.003c-.06-.002-.15-.005-.16-.004h-.005a8 8 0 0 1-.488-.05q-.012 0-.023-.003c.23.139.487.255.753.236.428-.032.772-.432.834-.862s-.114-.867-.379-1.208c-.266-.341-.617-.603-.963-.86l-1.66-1.232a2 2 0 0 0-.259-.171c.014.542.273 1.079.736 1.442"/><path fill="#ffdf7b" d="M47.855 1.42a1.8 1.8 0 0 0 .34 1.431c.472.611 1.277.84 2.037.947l.157.02a.75.75 0 0 0-.275-.417 5.5 5.5 0 0 0-1.75-.883.023.023 0 0 1-.016-.027c.1-.462.217-.929.346-1.387a.8.8 0 0 0-.12-.639A1 1 0 0 0 48.5.362a1.8 1.8 0 0 0-.645 1.058"/><path fill="#ffdf7b" d="M48.202 3.626c.284-.34-.304-1.245-.703-.765-.367.441.356 1.181.703.765"/><path fill="#000" d="m45.958 8.757-.09-.002-.165-.005a7.4 7.4 0 0 1-1.822-.36l-.112-.044a8 8 0 0 1-.788-.36.9.9 0 0 0-.721-.033.9.9 0 0 0-.524.477.967.967 0 0 0 .437 1.258c1.236.65 2.651.98 4.093.95.074.51.164 1.017.268 1.506.092.433.408.868.896.868a1 1 0 0 0 .11-.007c.275-.036.558-.21.722-.444a.73.73 0 0 0 .13-.577 24 24 0 0 1-.281-1.588q.409-.1.8-.238c.831-.294 1.658-.662 2.066-1.36.209-.357.265-.747.163-1.127-.129-.477-.494-.913-1.003-1.197-.247-.138-.523-.231-.789-.322l-.252-.086-1.162-.418c.032-.423.08-.874.136-1.308a4.4 4.4 0 0 1 .702.346l.02.013.004.002q.07.05.14.104c.375.282.984.32 1.314-.11.165-.215.241-.505.205-.776a.8.8 0 0 0-.314-.555 5.5 5.5 0 0 0-1.744-.883c.099-.455.213-.914.34-1.364a.84.84 0 0 0-.125-.676c-.15-.235-.381-.395-.618-.43-.512-.074-.94.22-1.088.75a24 24 0 0 0-.37 1.504 5.5 5.5 0 0 0-1.045.166c-.823.213-1.508.725-1.831 1.369-.393.782-.155 1.76.565 2.324.5.392 1.112.6 1.704.8l.092.032c-.006.599.01 1.204.048 1.8h-.022zM43.7 3.82q.1-.195.242-.374c.361-.453.917-.804 1.56-.97.346-.09.7-.146 1.054-.166q.017-.002.02-.018c.11-.515.235-1.026.373-1.519.143-.506.55-.787 1.039-.717.187.028.372.14.51.307q.041.048.077.103a.8.8 0 0 1 .119.638c-.129.458-.245.925-.346 1.388a.023.023 0 0 0 .016.026 5.5 5.5 0 0 1 1.75.883.75.75 0 0 1 .275.417q.014.052.021.107c.035.26-.038.537-.195.741-.314.409-.894.371-1.251.103l-.082-.062-.013-.013q0-.002-.016-.01l-.058-.037a4.5 4.5 0 0 0-.736-.36.023.023 0 0 0-.03.019c-.06.45-.108.918-.14 1.356q-.001.017.014.023l1.178.423.253.088c.264.09.538.182.782.318.498.278.855.704.98 1.169q.017.06.028.123c.057.329-.006.661-.186.97q-.088.15-.2.278c-.438.51-1.138.812-1.842 1.061a8 8 0 0 1-.816.242.023.023 0 0 0-.017.025c.077.543.172 1.085.285 1.612a.68.68 0 0 1-.123.54 1.05 1.05 0 0 1-.69.425c-.525.068-.86-.365-.957-.825a23 23 0 0 1-.27-1.523.023.023 0 0 0-.023-.02 8.4 8.4 0 0 1-4.092-.944.91.91 0 0 1-.495-.81 1 1 0 0 1 .079-.39.85.85 0 0 1 .498-.45.85.85 0 0 1 .685.03c.202.107.389.196.57.273q.112.046.223.089l.173.068.057.017c.407.124.813.214 1.208.269l.022.003q.24.033.49.05h.003c.01-.001.1.002.16.004l.092.003.09-.001h.046a.022.022 0 0 0 .022-.025 24 24 0 0 1-.05-1.837.02.02 0 0 0-.015-.022l-.107-.037c-.589-.2-1.197-.406-1.691-.794a1.9 1.9 0 0 1-.736-1.441 1.74 1.74 0 0 1 .183-.826"/><path fill="#000" d="M49.127 8.028c-.1-.043-.203-.08-.3-.116l-.957-.344a.022.022 0 0 0-.03.022q.01.479.037.94a.023.023 0 0 0 .023.02h.006a7.3 7.3 0 0 0 1.21-.474l.013-.007a.02.02 0 0 0 .012-.02.02.02 0 0 0-.014-.021m-1.207.47c-.016-.285-.028-.58-.034-.876q.462.165.925.333.125.045.252.095l-.21.1a7 7 0 0 1-.933.348M45.31 4.64l.001.003.017.012q.002.008.01.013l.01.007c.034.022.08.053.102.07q.004.008.01.012.076.043.134.071a7 7 0 0 0 .547.24l.012-.003a.02.02 0 0 0 .01-.018c.027-.288.06-.585.098-.882a.02.02 0 0 0-.007-.02.02.02 0 0 0-.02-.005l-.012.002-.068.015-.104.023c-.136.04-.264.084-.394.137l-.026.013-.112.07a2 2 0 0 0-.14.105.023.023 0 0 0-.004.03l-.049.06-.01-.002q-.012.002-.02.015c-.004.01.002.024.01.03zm.12-.12a2 2 0 0 1 .221-.15l.023-.01q.189-.079.388-.136c.015-.002.043-.009.102-.023l.048-.01c-.035.276-.066.553-.09.822a7 7 0 0 1-.508-.226l-.115-.06a1 1 0 0 0-.1-.072.2.2 0 0 0-.038-.033c.03-.03.068-.08.07-.101"/></svg>