<svg xmlns="http://www.w3.org/2000/svg" width="32" height="32" fill="none" viewBox="0 0 32 32"><rect width="32" height="32" fill="#a6e96d" rx="16"/><path stroke="#1d3209" stroke-linecap="round" stroke-linejoin="round" stroke-width="1.333" d="M15 14.002a1.5 1.5 0 0 1 2.913.5c0 .998-1.5 1.498-1.5 1.498m.02 2h.007m-.107 3.333a5.667 5.667 0 1 0-5.37-3.855c.071.214.107.32.114.403a.6.6 0 0 1-.019.217c-.02.08-.065.163-.155.33l-1.09 2.018c-.156.287-.234.431-.216.542a.33.33 0 0 0 .156.233c.096.06.258.042.584.009l3.414-.353c.103-.011.155-.016.202-.015a.6.6 0 0 1 .124.017c.046.01.104.033.22.077a5.7 5.7 0 0 0 2.036.377"/></svg>