<svg xmlns="http://www.w3.org/2000/svg" width="40" height="40" fill="none" viewBox="0 0 40 40"><rect width="40" height="40" fill="#a6e96d" rx="20"/><path stroke="#1d3209" stroke-linecap="round" stroke-linejoin="round" stroke-width="1.65" d="M27.5 27.5H13.833c-.466 0-.7 0-.878-.09a.83.83 0 0 1-.364-.365c-.091-.178-.091-.412-.091-.878V12.5m14.167 4.167L23.4 20.152c-.124.132-.186.198-.26.232a.4.4 0 0 1-.211.037c-.082-.008-.162-.05-.323-.133l-2.714-1.41c-.16-.083-.241-.125-.323-.132a.4.4 0 0 0-.21.036c-.075.034-.137.1-.26.233L15.832 22.5"/></svg>