<svg xmlns="http://www.w3.org/2000/svg" width="99" height="56" fill="none" viewBox="0 0 99 56"><path fill="#163300" d="m79.823 40.726-.036.027a3.2 3.2 0 0 1-3.805-.086l-11.58-8.961 10.992 9.513a2.35 2.35 0 0 1 .774 2.235 5.33 5.33 0 0 1-1.873 3.121l-.823.67a5.3 5.3 0 0 1-2.28 1.086 2.34 2.34 0 0 1-1.8-.376l-13.513-9.391c.475.366 8.152 6.297 11.382 8.79a2.42 2.42 0 0 1 .443 3.379q-.435.57-1.018 1.004a5.05 5.05 0 0 1-2.99.982H61.38c-.607 0-1.19-.213-1.652-.597l-9.889-8.26c.321.266.606.583.9.868q3.496 3.37 6.985 6.74c.358.34.765.665 1.081 1.04.358.422.548.44.285 1.082-.14.348-.398.624-.696.846-1.299.954-3.484.769-4.945.353l-.601-.172S24.044 44.49 17.552 34.045L0 26.715C5.677 13.798 12.216 6.158 15.971 1.218l14.085 7.661h19.168c1.832 0 3.601.643 5.003 1.819 8.397 7.039 16.816 14.056 25.185 21.126 3.23 2.724 4.32 6.153.411 8.903"/><path fill="#1d1d1b" d="M59.728 52.42a.3.3 0 0 1-.187-.067l-13.053-10.48a.3.3 0 1 1 .375-.466l13.053 10.48a.3.3 0 0 1-.188.532m9.664-4.166a.3.3 0 0 1-.178-.06l-16.19-12.01a.3.3 0 1 1 .356-.481l16.19 12.011a.3.3 0 0 1-.178.54m6.592-7.287a.3.3 0 0 1-.18-.06L61.117 29.85a.3.3 0 0 1 .36-.478l14.687 11.056a.3.3 0 0 1-.18.538"/><path fill="#9fff59" d="m98.563 32.147-6.855 1.63-4.801 1.43c-.916.273-1.823.58-2.738.852-.471.139-1.405.808-1.834.485-.303-.229-.181-.681-.27-1.023a2.9 2.9 0 0 0-.468-.962c-.327-.454-.764-.778-1.174-1.15q-.712-.643-1.43-1.281a519 519 0 0 0-3.55-3.13c-3.084-2.7-6.183-5.384-9.28-8.071-2.15-1.865-4.32-3.713-6.435-5.622-.376-.342.12-.59-.388-.59h-6.315c-.71 0-1.382.327-1.82.887l-3.25 4.166a3.81 3.81 0 0 1-6.278-4.286l5.058-8.526a4.67 4.67 0 0 1 3.56-2.266l10.96-1.082a4.67 4.67 0 0 1 2.903.668l7.262 4.456L88.03 0c4.787 6.818 9.42 17.857 10.533 32.147m-77.949 4.2s-4.01 1.864-2.11 5.03c0 0 .95 3.798 8.44.421zm14.571 11.217s-7.08.935-7.607-4.367l2.532-7.94s1.854-3.034 4.809.161a3.43 3.43 0 0 1 .859 2.884z"/><path fill="#9fff59" d="m34.858 47.248 2.06-6.288c.63-1.928 3.027-2.597 4.556-1.264.625.545 1.216 1.333 1.671 2.467.18.45.405 1.034.405 1.733 0 1.133-.328 2.354-.483 3.474l-.394 2.832c-.09.642.044 1.634-.362 2.18-.274.367-.92.205-1.281.107-1.009-.274-1.965-.83-2.846-1.371-1.482-.91-2.75-2.201-3.326-3.87"/><path fill="#9fff59" d="m42.285 51.075 1.024-5.346s5.372-2.34 6.532 6.73l1.794 2.212s-1.536 2.457-6.836.69a3.77 3.77 0 0 1-2.514-4.286"/><path fill="#1d1d1b" d="M45.996 51.362h-.002l-3.015-.008a1 1 0 0 1-.711-.297 1 1 0 0 1-.295-.713c.007-1.794.378-3.09 1.103-3.851.63-.661 1.664-.791 2.458-.309 1.477.897 1.554 3.043 1.468 4.242a1.01 1.01 0 0 1-1.006.936m-1.503-4.99c-.397 0-.788.155-1.07.451-.63.66-.965 1.879-.97 3.523a.527.527 0 0 0 .529.529l3.013.008h.001a.53.53 0 0 0 .529-.491c.078-1.09.02-3.034-1.24-3.799a1.53 1.53 0 0 0-.792-.22m-4.319-1.58a1 1 0 0 1-.175-.015l-2.968-.525a1.004 1.004 0 0 1-.818-1.167c.313-1.767.901-2.98 1.747-3.606.734-.543 1.774-.493 2.474.118 1.302 1.137 1.01 3.264.72 4.43a1.01 1.01 0 0 1-.98.765m-3.06-1.012 2.968.525a.53.53 0 0 0 .607-.393c.263-1.06.54-2.985-.57-3.954-.532-.465-1.32-.504-1.874-.094-.734.543-1.273 1.686-1.56 3.305a.53.53 0 0 0 .43.612m-4.039-3.772a1 1 0 0 1-.175-.015l-2.969-.524a1 1 0 0 1-.65-.414 1 1 0 0 1-.168-.753c.314-1.767.902-2.98 1.748-3.606.734-.543 1.774-.493 2.474.118 1.301 1.137 1.01 3.264.719 4.43a1.01 1.01 0 0 1-.98.765M30.016 39l2.968.524a.53.53 0 0 0 .606-.393c.264-1.06.54-2.985-.569-3.955a1.51 1.51 0 0 0-1.875-.093c-.733.543-1.273 1.686-1.56 3.305a.53.53 0 0 0 .43.612"/></svg>