<svg xmlns="http://www.w3.org/2000/svg" width="24" height="24" fill="none" viewBox="0 0 24 24"><mask id="b" width="24" height="24" x="0" y="0" maskUnits="userSpaceOnUse" style="mask-type:alpha"><g clip-path="url(#a)"><path fill="#000" d="M12 4.212c2.537 0 2.837.009 3.839.055a5.3 5.3 0 0 1 1.763.327c.413.153.786.396 1.093.711.316.307.558.68.711 1.093.209.564.32 1.161.327 1.763.046 1.002.055 1.303.055 3.839s-.009 2.837-.055 3.839a5.3 5.3 0 0 1-.327 1.763 3.14 3.14 0 0 1-1.804 1.804 5.3 5.3 0 0 1-1.763.327c-1.002.046-1.302.055-3.839.055s-2.837-.009-3.839-.055a5.3 5.3 0 0 1-1.764-.327 2.95 2.95 0 0 1-1.092-.711 3 3 0 0 1-.711-1.093 5.3 5.3 0 0 1-.327-1.763c-.046-1.002-.055-1.302-.055-3.839s.009-2.837.055-3.839a5.3 5.3 0 0 1 .327-1.763c.153-.413.396-.786.711-1.093.307-.315.68-.558 1.093-.711a5.3 5.3 0 0 1 1.763-.327c1.002-.046 1.303-.055 3.839-.055M12 2.5c-2.58 0-2.904.011-3.917.057a7 7 0 0 0-2.306.441 4.7 4.7 0 0 0-1.683 1.097 4.7 4.7 0 0 0-1.096 1.682 7 7 0 0 0-.44 2.306C2.51 9.096 2.5 9.42 2.5 12s.011 2.903.057 3.917c.016.788.165 1.567.441 2.306a4.7 4.7 0 0 0 1.097 1.683 4.7 4.7 0 0 0 1.682 1.096 7 7 0 0 0 2.306.44c1.013.048 1.337.058 3.917.058s2.903-.011 3.917-.057a7 7 0 0 0 2.306-.441 4.87 4.87 0 0 0 2.779-2.779 7 7 0 0 0 .44-2.306c.048-1.014.058-1.337.058-3.917s-.011-2.904-.057-3.917a7 7 0 0 0-.441-2.306 4.7 4.7 0 0 0-1.097-1.683 4.7 4.7 0 0 0-1.682-1.096 7 7 0 0 0-2.306-.44C14.903 2.51 14.58 2.5 12 2.5m0 4.621a4.87 4.87 0 0 0-2.71.823 4.87 4.87 0 0 0-2.075 5.008 4.88 4.88 0 0 0 3.833 3.833 4.875 4.875 0 0 0 5.008-2.075A4.879 4.879 0 0 0 12 7.121m0 8.046a3.165 3.165 0 0 1-2.926-1.955A3.166 3.166 0 1 1 12 15.167m5.071-9.378a1.14 1.14 0 1 0 0 2.282 1.14 1.14 0 0 0 0-2.282"/></g></mask><g mask="url(#b)"><path fill="#1d3209" d="M0 0h24v24H0z"/></g><defs><clipPath id="a"><path fill="#fff" d="M0 0h24v24H0z"/></clipPath></defs></svg>