<svg xmlns="http://www.w3.org/2000/svg" width="1013" height="101" fill="none" viewBox="0 0 1013 101"><path fill="#546266" d="M920.718 94.607q4.224 0 6.912-.64 2.816-.638 4.607-2.3 1.92-1.79 3.2-4.603 1.28-2.94 2.432-7.543l14.847-56.38q.896-3.325 1.28-5.754.512-2.43.512-4.219 0-4.218-2.944-5.497-2.943-1.28-9.855-1.279l1.408-5.114H1013v25.826h-4.86q-1.665-6.138-3.72-9.973c-1.36-2.642-2.94-4.687-4.731-6.136a14.2 14.2 0 0 0-5.888-3.196q-3.2-.895-7.167-.895h-16.639l-9.983 37.97h8.063q3.456 0 5.888-.639a11.6 11.6 0 0 0 4.351-2.173q2.049-1.662 3.712-4.475 1.793-2.812 3.84-7.287h4.736l-7.68 37.843h-5.12q.384-3.836.384-6.648 0-5.754-2.176-8.31-2.175-2.685-8.063-2.685h-9.599l-7.296 27.487q-1.152 4.22-1.152 7.16 0 4.603 4.096 6.903 4.095 2.175 14.079 2.174 7.295 0 12.671-1.151 5.503-1.15 9.472-3.58 4.096-2.556 7.039-6.648c2.048-2.727 3.963-6.094 5.763-10.1h6.01l-9.981 26.976H919.31zm-4.684-19.049q-4.48 6.776-8.832 11.634-4.224 4.858-8.831 7.927t-9.728 4.474T877.636 101q-8.703 0-15.615-2.685-6.911-2.812-11.775-7.927-4.736-5.24-7.423-12.529-2.56-7.415-2.56-16.62 0-12.145 4.479-23.14 4.48-11.123 11.904-19.561 7.551-8.438 17.406-13.424Q883.908 0 894.659 0q6.144 0 11.647 1.918 5.632 1.789 11.391 5.753l4.736-6.393h4.736l-5.888 32.09h-4.863q-1.024-13.935-6.016-20.327-4.863-6.393-14.719-6.393-8.447 0-15.743 4.22-7.295 4.218-12.671 11.633-5.376 7.416-8.448 17.388-3.07 9.972-3.071 21.478 0 31.706 24.702 31.706 9.216 0 16.639-4.986 7.552-4.986 14.335-15.597zm-148.387-2.301q-1.28 4.475-2.047 7.926-.64 3.452-.64 5.114 0 7.67 14.591 7.67l-1.408 5.754H735.65l1.407-5.114q6.144 0 9.984-3.58 3.84-3.707 6.015-11.634l15.103-56.38q1.664-6.137 1.664-9.59 0-1.917-.64-3.195-.64-1.28-2.176-2.046-1.535-.896-4.095-1.278-2.56-.384-6.4-.512l1.408-5.114h35.582q15.358 0 24.19 5.881 8.832 5.753 8.831 16.11 0 5.241-2.047 9.588-1.92 4.347-5.632 7.798-3.712 3.453-8.959 5.881-5.12 2.43-11.392 3.708l9.472 23.396q2.688 6.52 4.735 10.611 2.176 4.092 4.48 6.393t5.12 3.196q2.943.767 7.167.767l-1.408 5.114h-24.318l-18.815-47.943h-11.263zm7.68-28h6.271q6.656 0 12.288-1.533 5.759-1.535 9.727-4.347 4.096-2.94 6.4-7.16 2.303-4.218 2.303-9.716 0-7.671-4.735-11.506-4.736-3.963-13.823-3.964-2.56 0-4.352.512a6.53 6.53 0 0 0-2.944 1.534q-1.151 1.15-2.048 3.196-.896 1.918-1.664 4.986zM661.455 23.14a94 94 0 0 0 1.152-5.242q.512-2.812.512-4.602 0-3.835-2.687-5.37-2.688-1.534-9.344-1.534l1.664-5.114h40.829l-1.408 5.114q-4.607 0-7.423.767-2.815.64-4.864 2.813-1.92 2.174-3.455 6.392-1.409 4.219-3.2 11.123l-8.32 32.09a47 47 0 0 0-1.28 6.392 43.5 43.5 0 0 0-.384 5.626q0 10.227 5.248 16.236 5.247 6.01 15.359 6.01 6.272 0 11.135-2.302a30.1 30.1 0 0 0 8.832-6.52q3.84-4.22 6.655-9.845 2.816-5.753 4.992-12.529 1.92-6.135 3.712-13.68a289 289 0 0 0 3.327-14.574q1.536-7.031 2.304-12.53.896-5.625.896-7.798 0-3.836-3.584-5.625-3.455-1.79-9.471-2.046l1.536-5.114h33.662l-1.536 5.114q-3.072 0-5.248.64-2.176.51-3.712 2.429-1.535 1.917-2.687 5.37-1.152 3.45-2.432 9.204l-5.504 25.57q-5.504 25.44-16.383 38.482Q699.469 101 682.83 101q-16.383 0-24.446-7.543-7.936-7.672-7.936-21.735 0-4.09.64-8.182.64-4.219 1.92-8.95zM598.025 0q8.191 0 14.719 2.813 6.655 2.813 11.263 8.054 4.735 5.114 7.168 12.53 2.559 7.286 2.559 16.364 0 12.273-4.479 23.396-4.352 11.123-11.903 19.56-7.552 8.439-17.535 13.424-9.856 4.86-20.863 4.859-8.191 0-14.847-2.813-6.656-2.94-11.391-8.182t-7.296-12.53q-2.56-7.414-2.56-16.492 0-12.273 4.48-23.268 4.48-11.123 12.031-19.433 7.552-8.438 17.535-13.296Q587.018 0 598.025 0m0 6.648q-8.32 0-15.615 4.22-7.168 4.218-12.543 11.633-5.376 7.416-8.448 17.388t-3.072 21.478q0 16.365 5.632 24.547 5.76 8.181 16.767 8.182 8.064 0 14.847-4.347 6.911-4.347 11.903-12.018 5.12-7.67 7.936-18.282t2.815-23.14q0-15.342-4.991-22.501-4.865-7.16-15.231-7.16m-68.311-3.452h3.839l-5.375 25.186h-4.352q-.384-11.634-4.224-16.748T507.571 6.52q-3.967 0-7.296 1.15-3.327 1.024-5.759 3.07a16 16 0 0 0-3.712 4.857q-1.28 2.685-1.28 5.881 0 4.603 2.56 8.183t6.4 6.776a274 274 0 0 0 8.447 6.264 61.5 61.5 0 0 1 8.447 7.032 34.2 34.2 0 0 1 6.528 8.693q2.56 4.86 2.56 11.379 0 6.52-2.56 12.273a31.1 31.1 0 0 1-7.04 9.844q-4.351 4.22-10.239 6.649T491.956 101q-13.951 0-24.446-10.995l-2.688 9.716h-4.48l5.376-32.473h4.224q.896 13.169 6.527 20.072 5.631 6.904 15.615 6.904 4.608 0 8.447-1.279 3.84-1.406 6.528-3.707 2.816-2.43 4.352-5.626 1.664-3.324 1.664-7.16 0-5.368-2.688-9.46-2.688-4.09-6.656-7.67t-8.703-6.904a80 80 0 0 1-8.704-7.032q-3.967-3.835-6.655-8.31-2.688-4.602-2.688-10.484 0-5.497 2.304-10.355a27.4 27.4 0 0 1 6.527-8.438q4.096-3.58 9.6-5.626Q500.916 0 507.187 0q6.015 0 10.751 2.046t9.216 6.52zM411.918 78.243q-.768 2.94-1.408 5.114-.64 2.045-.64 3.835 0 4.09 3.328 5.753 3.329 1.662 11.391 1.662l-1.535 5.114h-44.541l1.407-5.114q3.84 0 6.656-.511t4.992-2.046q2.303-1.534 3.839-4.474 1.665-3.068 3.072-8.055l15.615-58.298q1.152-4.603 1.152-7.671 0-3.708-1.664-5.242-1.664-1.662-5.375-1.662-11.264 0-19.583 5.753-8.192 5.753-13.695 16.109h-5.12l12.159-27.232h85.499l-2.56 27.232h-4.864q0-12.273-4.608-17.004-4.48-4.858-13.439-4.858-3.2 0-5.503.64-2.176.638-3.968 2.3-1.663 1.662-3.072 4.603-1.28 2.94-2.432 7.543zm-75.796 0q-1.535 5.625-1.535 8.949 0 4.347 2.687 5.881 2.817 1.534 8.96 1.534l-1.536 5.114h-40.829l1.408-5.114q3.839 0 6.527-.511 2.688-.64 4.608-2.302 2.047-1.662 3.456-4.602 1.407-2.94 2.687-7.67l7.04-26.721h-49.661l-6.655 25.442q-1.536 5.625-1.536 8.949 0 4.347 2.688 5.881 2.815 1.534 9.087 1.534l-1.664 5.114h-40.829l1.408-5.114q3.84 0 6.527-.511 2.688-.64 4.608-2.302 2.048-1.662 3.456-4.602t2.688-7.67l14.975-56.51q1.919-7.031 1.919-10.483 0-3.963-2.943-4.986-2.817-1.15-9.728-1.15l1.408-5.115h41.597l-1.407 5.114q-4.224 0-7.04.895-2.815.768-4.864 3.068-2.048 2.302-3.711 6.393-1.536 4.09-3.2 10.611l-4.992 18.922h49.661l6.143-23.269q1.92-7.031 1.92-10.483 0-3.963-2.944-4.986-2.815-1.15-9.727-1.15l1.408-5.115h41.597l-1.408 5.114q-4.224 0-7.039.895-2.816.768-4.864 3.068-2.047 2.302-3.712 6.393-1.536 4.09-3.199 10.611zM192.048 94.096q5.376 0 9.855-1.406 4.608-1.534 7.936-4.347a19 19 0 0 0 5.247-7.16q1.92-4.219 1.92-9.844 0-5.115-2.304-7.543-2.175-2.43-8.575-2.43l1.152-4.985h35.07l-1.28 4.986q-2.688 0-4.608.384-1.792.383-3.2 2.173-1.407 1.662-2.688 5.114-1.28 3.452-2.815 9.46a194 194 0 0 0-1.92 7.543 37 37 0 0 0-1.024 7.416q-2.944.51-6.272 1.79a154 154 0 0 1-7.423 2.429q-4.096 1.279-9.472 2.3Q196.272 101 189.232 101q-8.703 0-15.615-2.685-6.911-2.812-11.775-7.927-4.736-5.24-7.423-12.529-2.56-7.415-2.56-16.62 0-12.145 4.607-23.14 4.737-11.123 12.544-19.561 7.935-8.438 18.174-13.424Q197.552 0 208.815 0q6.911 0 13.055 1.918 6.272 1.789 12.543 5.753l4.736-6.393h4.736l-4.608 28.127h-4.864q-1.28-11.762-7.167-17.26-5.76-5.496-17.407-5.497-8.96 0-16.767 4.22-7.68 4.218-13.439 11.633-5.76 7.416-9.088 17.388-3.2 9.972-3.199 21.478 0 32.73 24.702 32.729m-71.709-15.853q-1.536 5.625-1.536 8.949 0 4.347 2.688 5.881 2.816 1.534 8.959 1.534l-1.536 5.114H88.085l1.408-5.114q3.84 0 6.528-.511 2.687-.64 4.607-2.302 2.048-1.662 3.456-4.602t2.688-7.67l14.975-56.51q1.92-7.031 1.92-10.483 0-3.963-2.944-4.986-2.816-1.15-9.727-1.15l1.408-5.115h41.597l-1.408 5.114q-4.224 0-7.04.895-2.815.768-4.863 3.068-2.049 2.302-3.712 6.393-1.536 4.09-3.2 10.611zM1.408 94.607q4.224 0 6.911-.64 2.816-.638 4.608-2.3 1.92-1.79 3.2-4.603 1.28-2.94 2.432-7.543l14.463-56.509a135 135 0 0 0 1.408-6.136q.512-2.557.512-4.347 0-3.452-2.304-4.73-2.175-1.407-7.552-1.407h-2.815l1.407-5.114h41.598l-1.408 5.114q-4.224 0-7.04.895-2.815.768-4.864 3.068-2.047 2.302-3.711 6.393-1.535 4.09-3.2 10.611L31.742 77.987q-1.152 4.22-1.152 7.16 0 4.603 3.072 6.903 3.2 2.175 11.263 2.174 7.68 0 13.183-1.279 5.633-1.278 9.855-4.091 4.224-2.94 7.296-7.415 3.2-4.603 5.888-11.25h6.015L75.9 99.72H0z" opacity=".5"/></svg>