<svg xmlns="http://www.w3.org/2000/svg" width="44" height="48" fill="none" viewBox="0 0 44 48"><path fill="#1d3209" d="M15.934 2.557c-2.892 1.385-7.482 3.57-10.161 4.848C1.926 9.216.785 9.882.413 10.521c-.477.746-.477 1.492-.318 13.452.16 13.398.16 13.371 1.46 14.57.344.346 4.907 2.584 10.107 5.008 10.082 4.688 11.196 5.034 12.204 3.915.584-.639.584-1.731 0-2.237-.265-.213-4.483-2.158-9.365-4.315-4.881-2.184-9.126-4.182-9.418-4.449-.504-.506-.53-.932-.61-12.226-.053-9.988 0-11.747.318-11.88.53-.213 3.025.933 3.476 1.598.344.453.397 2.131.397 9.883 0 6.845.107 9.509.345 9.988.398.826 1.751 1.519 12.629 6.366 4.828 2.131 8.781 3.756 9.259 3.756 1.539 0 2.573-1.598 1.724-2.61-.345-.426-13.822-6.686-18.863-8.764-.185-.08-.504-.479-.716-.905-.345-.613-.398-2.61-.398-11.827 0-9.829.053-11.08.425-11.24.583-.213 2.52.48 3.236 1.172.584.586.584.612.584 9.722 0 8.364.053 9.216.477 10.069.478.852 1.247 1.225 11.17 5.673l10.691 4.795 1.088-.373c1.274-.426 2.706-1.598 3.263-2.664.584-1.172.557-25.198-.053-26.477-.371-.799-1.14-1.225-8.808-4.82C24.211.771 22.46 0 21.77 0c-.291 0-2.918 1.145-5.836 2.557M24.132 5.7c1.114.506 2.149 1.172 2.281 1.465.186.346.292 3.49.292 8.87 0 6.286.08 8.47.345 8.817.16.24 2.892 1.571 6.022 2.983s5.89 2.744 6.155 2.983c.478.427.637 1.758.319 2.61-.186.48-1.46 1.2-2.096 1.2-.239 0-3.82-1.519-7.986-3.357-6.367-2.85-7.614-3.49-7.932-4.128-.319-.613-.398-2.584-.398-11.374 0-5.834.08-10.708.185-10.788.319-.32.77-.213 2.813.72"/></svg>