<svg xmlns="http://www.w3.org/2000/svg" width="24" height="24" fill="none" viewBox="0 0 24 24"><mask id="b" width="24" height="24" x="0" y="0" maskUnits="userSpaceOnUse" style="mask-type:alpha"><g clip-path="url(#a)"><path fill="#000" d="M19.65 3H4.35A1.353 1.353 0 0 0 3 4.35v15.3A1.353 1.353 0 0 0 4.35 21h15.3A1.353 1.353 0 0 0 21 19.65V4.35A1.353 1.353 0 0 0 19.65 3M8.4 18.3H5.7v-8.1h2.7zM7.05 8.625a1.58 1.58 0 0 1-1.423-1.003A1.575 1.575 0 1 1 8.67 7.05a1.6 1.6 0 0 1-1.62 1.575M18.3 18.3h-2.7v-4.266c0-1.278-.54-1.737-1.242-1.737a1.567 1.567 0 0 0-1.458 1.674.5.5 0 0 0 0 .126V18.3h-2.7v-8.1h2.61v1.17a2.8 2.8 0 0 1 2.43-1.26c1.395 0 3.024.774 3.024 3.294z"/></g></mask><g mask="url(#b)"><path fill="#1d3209" d="M0 0h24v24H0z"/></g><defs><clipPath id="a"><path fill="#fff" d="M0 0h24v24H0z"/></clipPath></defs></svg>