<svg xmlns="http://www.w3.org/2000/svg" width="30" height="30" fill="none" viewBox="0 0 30 30"><path fill="#398700" d="M20 12h-.857v-1.714A4.287 4.287 0 0 0 14.857 6a4.287 4.287 0 0 0-4.286 4.286V12h-.857A1.72 1.72 0 0 0 8 13.714v8.572A1.72 1.72 0 0 0 9.714 24H20a1.72 1.72 0 0 0 1.714-1.714v-8.572A1.72 1.72 0 0 0 20 12m-5.143 7.714A1.72 1.72 0 0 1 13.143 18a1.72 1.72 0 0 1 1.714-1.714A1.72 1.72 0 0 1 16.571 18a1.72 1.72 0 0 1-1.714 1.714M17.514 12H12.2v-1.714a2.66 2.66 0 0 1 2.657-2.657 2.66 2.66 0 0 1 2.657 2.657z"/></svg>