<svg xmlns="http://www.w3.org/2000/svg" width="183" height="32" fill="none" viewBox="0 0 183 32"><g fill="#1d3209" clip-path="url(#a)"><path fill-rule="evenodd" d="M28.44 6.25 15.538.17c-.485-.227-1.27-.227-1.752 0L.878 6.25C.393 6.477 0 7.098 0 7.632v16.05c0 .91.673 1.97 1.495 2.359l12.286 5.788c.486.228 1.271.228 1.753 0 .832-.393.822-1.58-.017-1.957L3.742 24.55c-.468-.211-.848-.802-.848-1.317V8.698c0-.514.38-.759.848-.547l1.363.61c.39.175.637.558.637.984v11.982c0 .608.45 1.304 1 1.555l13.283 6.013c.288.128.617.128.905-.007l.392-.185c.832-.392.822-1.58-.016-1.957L9.313 21.724c-.469-.211-.848-.802-.848-1.317V6.157c0-.515.38-.759.848-.548l1.363.611c.39.175.637.558.637.983v11.693c0 .607.449 1.303 1 1.551l13.504 6.112c.287.129.617.129.904-.007l1.096-.515c.822-.386 1.495-1.448 1.495-2.36V7.633c0-.534-.393-1.155-.878-1.382zm-1.88 15.029c0 1.471-1.096 2.178-2.436 1.57l-9.145-4.138c-.468-.211-.851-.802-.851-1.317V3.788c0-.515.38-.76.851-.548l2.258 1.006c.35.156.633.595.633.977v10.703c0 .442.258.841.66 1.023l7.396 3.35c.35.158.634.597.634.98" clip-rule="evenodd"/><path d="M54.707 18.759v3.23H42.183V5.355h3.92v13.402h8.604zM58.865 4.76c1.38 0 2.161.594 2.161 1.95 0 1.357-.785 1.924-2.161 1.924s-2.162-.617-2.162-1.924.786-1.95 2.162-1.95m1.874 5.419v11.81h-3.755V10.18zm14.996 11.336c0 3.92-2.778 5.725-6.63 5.725-2.33 0-4.442-.69-5.396-2.59l2.116-1.828c.713 1.26 1.805 1.735 3.135 1.735 1.878 0 3.043-.927 3.043-2.993v-1.686c-.736 1.307-1.95 1.973-3.706 1.973-2.97 0-4.944-1.973-4.944-5.94s2.02-6.036 5.158-6.036c1.76 0 3.112.667 3.875 2.02l.31-1.71h3.043v11.336zm-6.323-8.888c-1.617 0-2.472 1.047-2.472 3.231s.855 3.257 2.472 3.257 2.614-1.069 2.614-3.28-1.092-3.208-2.614-3.208m13.356-.287c.832-1.64 2.4-2.472 4.158-2.472 2.947 0 4.277 1.878 4.277 4.706v7.416h-3.755v-6.155c0-2.043-.736-2.71-2.093-2.71-1.521 0-2.567 1.024-2.59 3.067v5.798h-3.756V5.354h3.756v6.986zm12.187-2.161v-3.35h3.66v3.35h3.162v2.732h-3.162v4.775c0 1.38.617 1.878 1.664 1.878a3.2 3.2 0 0 0 1.448-.31l.499 2.376c-.878.475-1.806.69-2.924.69-2.449 0-4.35-1.07-4.35-4.3v-5.11h-1.805v-2.73zm18.584-.285c-.786-1.211-1.829-1.947-3.588-1.947-1.95 0-2.732.759-2.732 1.828 0 .904.452 1.617 2.376 2.066l1.663.38c3.779.854 5.3 2.471 5.3 4.99 0 3.207-2.422 5.108-6.749 5.108-2.805 0-5.3-.736-6.748-3.208l2.541-1.878c.95 1.545 2.303 2.353 4.207 2.353 2.093 0 3.089-.666 3.089-1.973 0-.95-.547-1.545-2.471-1.997l-1.641-.38c-3.706-.854-5.108-2.755-5.108-5.203 0-2.852 2.303-5.013 6.25-5.013 2.875 0 5.013.831 6.274 3.112l-2.663 1.759zm11.286-.023c4.158 0 6.201 1.924 6.201 6.2 0 4.278-2.138 6.251-6.201 6.251s-6.201-2.02-6.201-6.25 2.304-6.201 6.201-6.201m0 2.802c-1.878 0-2.663.973-2.663 3.422s.832 3.468 2.663 3.468c1.832 0 2.637-.996 2.637-3.468s-.785-3.422-2.637-3.422m17.438 7.319c-.881 1.568-2.449 2.33-4.181 2.33-3.185 0-4.538-1.924-4.538-4.633v-7.508h3.756v6.488c0 1.759.666 2.59 2.092 2.59s2.472-1.046 2.495-3.042v-6.036h3.729v11.811h-3.066l-.283-1.996zm6.653-9.814h3.112l.311 2.353c.808-1.736 2.353-2.71 4.23-2.66l.023 3.564c-2.636-.215-3.897 1.33-3.92 3.874v4.683h-3.756zm9.125 5.916c0-4.327 2.258-6.228 6.155-6.228 2.472 0 4.086.832 5.086 2.614l-2.568 1.828c-.521-1.069-1.33-1.498-2.472-1.498-1.709 0-2.59.76-2.59 3.304 0 2.28.736 3.399 2.567 3.399 1.307 0 2.139-.498 2.614-1.617l2.591 1.472c-.997 1.947-2.733 2.947-5.396 2.947-3.683 0-5.99-1.829-5.99-6.228zm12.831.073c0-3.97 2.185-6.297 6.036-6.297 3.852 0 5.561 2.614 5.561 5.963 0 .403-.023.809-.096 1.284h-7.937c.165 1.878 1.142 2.637 2.852 2.637 1.284 0 2.138-.38 2.732-1.498l2.258 1.379c-.974 1.828-2.829 2.686-5.277 2.686-3.756 0-6.132-1.973-6.132-6.154zm3.564-1.215h4.588c-.096-1.663-.832-2.472-2.185-2.472s-2.257.786-2.399 2.472z"/></g><defs><clipPath id="a"><path fill="#fff" d="M0 0h182.469v32H0z"/></clipPath></defs></svg>