<svg xmlns="http://www.w3.org/2000/svg" width="32" height="32" fill="none" viewBox="0 0 32 32"><rect width="32" height="32" fill="#a6e96d" rx="16"/><path stroke="#1d3209" stroke-linecap="round" stroke-linejoin="round" stroke-width="1.333" d="M17.333 15.333h-4M14.667 18h-1.334m5.334-5.333h-5.334m8 2v-2.134c0-1.12 0-1.68-.218-2.108a2 2 0 0 0-.874-.874c-.427-.218-.988-.218-2.108-.218h-4.266c-1.12 0-1.68 0-2.108.218a2 2 0 0 0-.874.874c-.218.428-.218.988-.218 2.108v6.934c0 1.12 0 1.68.218 2.108a2 2 0 0 0 .874.874c.428.218.988.218 2.108.218h2.466M20 22s2-.953 2-2.383v-1.668l-1.458-.522a1.6 1.6 0 0 0-1.084 0L18 17.95v1.668C18 21.047 20 22 20 22"/></svg>