<svg xmlns="http://www.w3.org/2000/svg" width="1440" height="829" fill="none" viewBox="0 0 1440 829"><g clip-path="url(#a)" opacity=".9"><mask id="d" fill="#fff"><path d="M35.928 967.391V-717.424H131V967.391z"/></mask><path fill="url(#b)" d="M35.928 967.391V-717.424H131V967.391z"/><path fill="url(#c)" d="M131-717.424h-1.203l-.001 1684.815h2.407V-717.424z" mask="url(#d)"/><mask id="g" fill="#fff"><path d="M-59.143 809.74V-717.424h95.071V809.74z"/></mask><path fill="url(#e)" d="M-59.143 809.74V-717.424h95.071V809.74z"/><path fill="url(#f)" d="M35.928-717.424h-1.203V809.74h2.407V-717.424z" mask="url(#g)"/></g><g clip-path="url(#h)" opacity=".9"><mask id="k" fill="#fff"><path d="M195.928 967.391V-717.424H291V967.391z"/></mask><path fill="url(#i)" d="M195.928 967.391V-717.424H291V967.391z"/><path fill="url(#j)" d="M291-717.424h-1.203l-.001 1684.815h2.407V-717.424z" mask="url(#k)"/><mask id="n" fill="#fff"><path d="M100.857 809.74V-717.424h95.071V809.74z"/></mask><path fill="url(#l)" d="M100.857 809.74V-717.424h95.071V809.74z"/><path fill="url(#m)" d="M195.928-717.424h-1.203V809.74h2.407V-717.424z" mask="url(#n)"/></g><g clip-path="url(#o)" opacity=".9"><mask id="r" fill="#fff"><path d="M350.928 967.391V-717.424H446V967.391z"/></mask><path fill="url(#p)" d="M350.928 967.391V-717.424H446V967.391z"/><path fill="url(#q)" d="M446-717.424h-1.203V967.391h2.406V-717.424z" mask="url(#r)"/><mask id="u" fill="#fff"><path d="M255.857 809.74V-717.424h95.071V809.74z"/></mask><path fill="url(#s)" d="M255.857 809.74V-717.424h95.071V809.74z"/><path fill="url(#t)" d="M350.928-717.424h-1.203V809.74h2.407V-717.424z" mask="url(#u)"/></g><g clip-path="url(#v)" opacity=".9"><mask id="y" fill="#fff"><path d="M636.143 967.476V-717.339h95.072V967.476z"/></mask><path fill="url(#w)" d="M636.143 967.476V-717.339h95.072V967.476z"/><path fill="url(#x)" d="M731.215-717.339h-1.203V967.476h2.406l.001-1684.815z" mask="url(#y)"/><mask id="B" fill="#fff"><path d="M541.072 809.825V-717.339h95.071V809.825z"/></mask><path fill="url(#z)" d="M541.072 809.825V-717.339h95.071V809.825z"/><path fill="url(#A)" d="M636.143-717.339h-1.203V809.825h2.407V-717.339z" mask="url(#B)"/><mask id="E" fill="#fff"><path d="M446 967.476V-717.339h95.072V967.476z"/></mask><path fill="url(#C)" d="M446 967.476V-717.339h95.072V967.476z"/><path fill="url(#D)" d="M541.072-717.339h-1.204V967.476h2.407V-717.339z" mask="url(#E)"/></g><g clip-path="url(#F)" opacity=".9"><mask id="I" fill="#fff"><path d="M921.358 967.476V-717.339h95.072V967.476z"/></mask><path fill="url(#G)" d="M921.358 967.476V-717.339h95.072V967.476z"/><path fill="url(#H)" d="M1016.43-717.339h-1.2V967.476h2.4V-717.339z" mask="url(#I)"/><mask id="L" fill="#fff"><path d="M826.287 809.825V-717.339h95.071V809.825z"/></mask><path fill="url(#J)" d="M826.287 809.825V-717.339h95.071V809.825z"/><path fill="url(#K)" d="M921.358-717.339h-1.203V809.825h2.407V-717.339z" mask="url(#L)"/><mask id="O" fill="#fff"><path d="M731.215 967.476V-717.339h95.072l-.001 1684.815z"/></mask><path fill="url(#M)" d="M731.215 967.476V-717.339h95.072l-.001 1684.815z"/><path fill="url(#N)" d="M826.287-717.339h-1.204V967.476h2.407V-717.339z" mask="url(#O)"/></g><g clip-path="url(#P)" opacity=".9"><mask id="S" fill="#fff"><path d="M1206.57 967.476V-717.339h95.08V967.476z"/></mask><path fill="url(#Q)" d="M1206.57 967.476V-717.339h95.08V967.476z"/><path fill="url(#R)" d="M1301.65-717.339h-1.21V967.476h2.41V-717.339z" mask="url(#S)"/><mask id="V" fill="#fff"><path d="M1111.5 809.825V-717.339h95.07V809.825z"/></mask><path fill="url(#T)" d="M1111.5 809.825V-717.339h95.07V809.825z"/><path fill="url(#U)" d="M1206.57-717.339h-1.2V809.825h2.41V-717.339z" mask="url(#V)"/><mask id="Y" fill="#fff"><path d="M1016.43 967.476V-717.339h95.07V967.476z"/></mask><path fill="url(#W)" d="M1016.43 967.476V-717.339h95.07V967.476z"/><path fill="url(#X)" d="M1111.5-717.339h-1.2V967.476h2.41V-717.339z" mask="url(#Y)"/></g><g clip-path="url(#Z)" opacity=".9"><mask id="ac" fill="#fff"><path d="M1344.57 967.391V-717.424h95.08V967.391z"/></mask><path fill="url(#aa)" d="M1344.57 967.391V-717.424h95.08V967.391z"/><path fill="url(#ab)" d="M1439.65-717.424h-1.21V967.391h2.41V-717.424z" mask="url(#ac)"/><mask id="af" fill="#fff"><path d="M1249.5 809.74V-717.424h95.07V809.74z"/></mask><path fill="url(#ad)" d="M1249.5 809.74V-717.424h95.07V809.74z"/><path fill="url(#ae)" d="M1344.57-717.424h-1.2V809.74h2.41V-717.424z" mask="url(#af)"/></g><defs><radialGradient id="b" cx="0" cy="0" r="1" gradientTransform="matrix(83.639 0 0 459.563 131 124.983)" gradientUnits="userSpaceOnUse"><stop stop-color="#fff" stop-opacity=".2"/><stop offset="1" stop-color="#fff" stop-opacity="0"/></radialGradient><radialGradient id="c" cx="0" cy="0" r="1" gradientTransform="matrix(-570.43 0 0 -313.603 131 124.983)" gradientUnits="userSpaceOnUse"><stop stop-color="#9fe870" stop-opacity=".24"/><stop offset="1" stop-color="#9fe870" stop-opacity="0"/></radialGradient><radialGradient id="e" cx="0" cy="0" r="1" gradientTransform="matrix(83.6391 0 0 416.561 35.928 46.158)" gradientUnits="userSpaceOnUse"><stop stop-color="#fff" stop-opacity=".2"/><stop offset="1" stop-color="#fff" stop-opacity="0"/></radialGradient><radialGradient id="f" cx="0" cy="0" r="1" gradientTransform="matrix(-570.43 0 0 -284.259 35.928 46.158)" gradientUnits="userSpaceOnUse"><stop stop-color="#9fe870" stop-opacity=".24"/><stop offset="1" stop-color="#9fe870" stop-opacity="0"/></radialGradient><radialGradient id="i" cx="0" cy="0" r="1" gradientTransform="matrix(83.639 0 0 459.563 291 124.983)" gradientUnits="userSpaceOnUse"><stop stop-color="#fff" stop-opacity=".2"/><stop offset="1" stop-color="#fff" stop-opacity="0"/></radialGradient><radialGradient id="j" cx="0" cy="0" r="1" gradientTransform="matrix(-570.43 0 0 -313.603 291 124.983)" gradientUnits="userSpaceOnUse"><stop stop-color="#9fe870" stop-opacity=".24"/><stop offset="1" stop-color="#9fe870" stop-opacity="0"/></radialGradient><radialGradient id="l" cx="0" cy="0" r="1" gradientTransform="matrix(83.6391 0 0 416.561 195.928 46.158)" gradientUnits="userSpaceOnUse"><stop stop-color="#fff" stop-opacity=".2"/><stop offset="1" stop-color="#fff" stop-opacity="0"/></radialGradient><radialGradient id="m" cx="0" cy="0" r="1" gradientTransform="matrix(-570.43 0 0 -284.259 195.928 46.158)" gradientUnits="userSpaceOnUse"><stop stop-color="#9fe870" stop-opacity=".24"/><stop offset="1" stop-color="#9fe870" stop-opacity="0"/></radialGradient><radialGradient id="p" cx="0" cy="0" r="1" gradientTransform="matrix(83.639 0 0 459.563 446 124.983)" gradientUnits="userSpaceOnUse"><stop stop-color="#fff" stop-opacity=".2"/><stop offset="1" stop-color="#fff" stop-opacity="0"/></radialGradient><radialGradient id="q" cx="0" cy="0" r="1" gradientTransform="matrix(-570.43 0 0 -313.603 446 124.983)" gradientUnits="userSpaceOnUse"><stop stop-color="#9fe870" stop-opacity=".24"/><stop offset="1" stop-color="#9fe870" stop-opacity="0"/></radialGradient><radialGradient id="s" cx="0" cy="0" r="1" gradientTransform="matrix(83.6391 0 0 416.561 350.928 46.158)" gradientUnits="userSpaceOnUse"><stop stop-color="#fff" stop-opacity=".2"/><stop offset="1" stop-color="#fff" stop-opacity="0"/></radialGradient><radialGradient id="t" cx="0" cy="0" r="1" gradientTransform="matrix(-570.43 0 0 -284.259 350.928 46.158)" gradientUnits="userSpaceOnUse"><stop stop-color="#9fe870" stop-opacity=".24"/><stop offset="1" stop-color="#9fe870" stop-opacity="0"/></radialGradient><radialGradient id="w" cx="0" cy="0" r="1" gradientTransform="matrix(83.639 0 0 459.563 731.215 125.068)" gradientUnits="userSpaceOnUse"><stop stop-color="#fff" stop-opacity=".2"/><stop offset="1" stop-color="#fff" stop-opacity="0"/></radialGradient><radialGradient id="x" cx="0" cy="0" r="1" gradientTransform="matrix(-570.43 0 0 -313.603 731.215 125.068)" gradientUnits="userSpaceOnUse"><stop stop-color="#9fe870" stop-opacity=".24"/><stop offset="1" stop-color="#9fe870" stop-opacity="0"/></radialGradient><radialGradient id="z" cx="0" cy="0" r="1" gradientTransform="matrix(83.6391 0 0 416.561 636.143 46.243)" gradientUnits="userSpaceOnUse"><stop stop-color="#fff" stop-opacity=".2"/><stop offset="1" stop-color="#fff" stop-opacity="0"/></radialGradient><radialGradient id="A" cx="0" cy="0" r="1" gradientTransform="matrix(-570.43 0 0 -284.259 636.143 46.243)" gradientUnits="userSpaceOnUse"><stop stop-color="#9fe870" stop-opacity=".24"/><stop offset="1" stop-color="#9fe870" stop-opacity="0"/></radialGradient><radialGradient id="C" cx="0" cy="0" r="1" gradientTransform="matrix(83.639 0 0 459.563 541.072 125.068)" gradientUnits="userSpaceOnUse"><stop stop-color="#fff" stop-opacity=".2"/><stop offset="1" stop-color="#fff" stop-opacity="0"/></radialGradient><radialGradient id="D" cx="0" cy="0" r="1" gradientTransform="matrix(-570.43 0 0 -313.603 541.072 125.068)" gradientUnits="userSpaceOnUse"><stop stop-color="#9fe870" stop-opacity=".24"/><stop offset="1" stop-color="#9fe870" stop-opacity="0"/></radialGradient><radialGradient id="G" cx="0" cy="0" r="1" gradientTransform="matrix(83.639 0 0 459.563 1016.43 125.068)" gradientUnits="userSpaceOnUse"><stop stop-color="#fff" stop-opacity=".2"/><stop offset="1" stop-color="#fff" stop-opacity="0"/></radialGradient><radialGradient id="H" cx="0" cy="0" r="1" gradientTransform="matrix(-570.43 0 0 -313.603 1016.43 125.068)" gradientUnits="userSpaceOnUse"><stop stop-color="#9fe870" stop-opacity=".24"/><stop offset="1" stop-color="#9fe870" stop-opacity="0"/></radialGradient><radialGradient id="J" cx="0" cy="0" r="1" gradientTransform="matrix(83.6391 0 0 416.561 921.358 46.243)" gradientUnits="userSpaceOnUse"><stop stop-color="#fff" stop-opacity=".2"/><stop offset="1" stop-color="#fff" stop-opacity="0"/></radialGradient><radialGradient id="K" cx="0" cy="0" r="1" gradientTransform="matrix(-570.43 0 0 -284.259 921.358 46.243)" gradientUnits="userSpaceOnUse"><stop stop-color="#9fe870" stop-opacity=".24"/><stop offset="1" stop-color="#9fe870" stop-opacity="0"/></radialGradient><radialGradient id="M" cx="0" cy="0" r="1" gradientTransform="matrix(83.639 0 0 459.563 826.287 125.068)" gradientUnits="userSpaceOnUse"><stop stop-color="#fff" stop-opacity=".2"/><stop offset="1" stop-color="#fff" stop-opacity="0"/></radialGradient><radialGradient id="N" cx="0" cy="0" r="1" gradientTransform="matrix(-570.43 0 0 -313.603 826.287 125.068)" gradientUnits="userSpaceOnUse"><stop stop-color="#9fe870" stop-opacity=".24"/><stop offset="1" stop-color="#9fe870" stop-opacity="0"/></radialGradient><radialGradient id="Q" cx="0" cy="0" r="1" gradientTransform="matrix(83.639 0 0 459.563 1301.65 125.068)" gradientUnits="userSpaceOnUse"><stop stop-color="#fff" stop-opacity=".2"/><stop offset="1" stop-color="#fff" stop-opacity="0"/></radialGradient><radialGradient id="R" cx="0" cy="0" r="1" gradientTransform="matrix(-570.43 0 0 -313.603 1301.65 125.068)" gradientUnits="userSpaceOnUse"><stop stop-color="#9fe870" stop-opacity=".24"/><stop offset="1" stop-color="#9fe870" stop-opacity="0"/></radialGradient><radialGradient id="T" cx="0" cy="0" r="1" gradientTransform="matrix(83.6391 0 0 416.561 1206.57 46.243)" gradientUnits="userSpaceOnUse"><stop stop-color="#fff" stop-opacity=".2"/><stop offset="1" stop-color="#fff" stop-opacity="0"/></radialGradient><radialGradient id="U" cx="0" cy="0" r="1" gradientTransform="matrix(-570.43 0 0 -284.259 1206.57 46.243)" gradientUnits="userSpaceOnUse"><stop stop-color="#9fe870" stop-opacity=".24"/><stop offset="1" stop-color="#9fe870" stop-opacity="0"/></radialGradient><radialGradient id="W" cx="0" cy="0" r="1" gradientTransform="matrix(83.639 0 0 459.563 1111.5 125.068)" gradientUnits="userSpaceOnUse"><stop stop-color="#fff" stop-opacity=".2"/><stop offset="1" stop-color="#fff" stop-opacity="0"/></radialGradient><radialGradient id="X" cx="0" cy="0" r="1" gradientTransform="matrix(-570.43 0 0 -313.603 1111.5 125.068)" gradientUnits="userSpaceOnUse"><stop stop-color="#9fe870" stop-opacity=".24"/><stop offset="1" stop-color="#9fe870" stop-opacity="0"/></radialGradient><radialGradient id="aa" cx="0" cy="0" r="1" gradientTransform="matrix(83.639 0 0 459.563 1439.65 124.983)" gradientUnits="userSpaceOnUse"><stop stop-color="#fff" stop-opacity=".2"/><stop offset="1" stop-color="#fff" stop-opacity="0"/></radialGradient><radialGradient id="ab" cx="0" cy="0" r="1" gradientTransform="matrix(-570.43 0 0 -313.603 1439.65 124.983)" gradientUnits="userSpaceOnUse"><stop stop-color="#9fe870" stop-opacity=".24"/><stop offset="1" stop-color="#9fe870" stop-opacity="0"/></radialGradient><radialGradient id="ad" cx="0" cy="0" r="1" gradientTransform="matrix(83.6391 0 0 416.561 1344.57 46.158)" gradientUnits="userSpaceOnUse"><stop stop-color="#fff" stop-opacity=".2"/><stop offset="1" stop-color="#fff" stop-opacity="0"/></radialGradient><radialGradient id="ae" cx="0" cy="0" r="1" gradientTransform="matrix(-570.43 0 0 -284.259 1344.57 46.158)" gradientUnits="userSpaceOnUse"><stop stop-color="#9fe870" stop-opacity=".24"/><stop offset="1" stop-color="#9fe870" stop-opacity="0"/></radialGradient><clipPath id="a"><path fill="#fff" d="M131 829H0V0h131z"/></clipPath><clipPath id="h"><path fill="#fff" d="M291 829H131V0h160z"/></clipPath><clipPath id="o"><path fill="#fff" d="M446 829H291V0h155z"/></clipPath><clipPath id="v"><path fill="#fff" d="M731.215 829.085H446V-.085h285.215z"/></clipPath><clipPath id="F"><path fill="#fff" d="M1016.43 829.085H731.215V-.085h285.215z"/></clipPath><clipPath id="P"><path fill="#fff" d="M1301.65 829.085h-285.215V-.085h285.215z"/></clipPath><clipPath id="Z"><path fill="#fff" d="M1439.65 829h-138V0h138z"/></clipPath></defs></svg>