<svg xmlns="http://www.w3.org/2000/svg" width="32" height="32" fill="none" viewBox="0 0 32 32"><rect width="32" height="32" fill="#a6e96d" rx="16"/><g stroke="#4a5b3a" stroke-linecap="round" stroke-linejoin="round" stroke-width="1.333" clip-path="url(#a)"><path d="M19.467 17.333c.184 0 .277 0 .351.041.062.034.12.098.147.163.033.078.025.162.008.329a5.335 5.335 0 1 1-5.839-5.84c.167-.016.25-.024.33.009a.35.35 0 0 1 .162.146c.04.075.04.168.04.352V16.8c0 .187 0 .28.037.351a.33.33 0 0 0 .146.146c.07.036.164.036.35.036zm-2.134-7.466c0-.185 0-.277.041-.352a.35.35 0 0 1 .162-.147c.079-.033.162-.025.33-.008a5.33 5.33 0 0 1 4.774 4.774c.017.167.025.251-.008.33a.36.36 0 0 1-.147.162c-.075.04-.167.04-.352.04h-4.266c-.187 0-.28 0-.352-.036a.33.33 0 0 1-.145-.145c-.037-.072-.037-.165-.037-.352z"/></g><defs><clipPath id="a"><path fill="#fff" d="M8 8h16v16H8z"/></clipPath></defs></svg>