<svg xmlns="http://www.w3.org/2000/svg" width="40" height="40" fill="none" viewBox="0 0 40 40"><rect width="40" height="40" fill="#a6e96d" rx="20"/><path stroke="#1d3209" stroke-linecap="round" stroke-linejoin="round" stroke-width="1.65" d="M12.084 20.833h5m5.833 0h5m-7.917-5V27.5m0-11.667a2.084 2.084 0 0 0 2.084-2.083M20 15.833a2.083 2.083 0 0 1-2.083-2.083M13.334 27.5h13.333M13.334 13.75h4.583m0 0a2.083 2.083 0 1 1 4.167 0m0 0h4.583m-9.266 8.197c-.334 1.278-1.469 2.22-2.817 2.22s-2.483-.942-2.817-2.22a1.2 1.2 0 0 1-.042-.366 2.4 2.4 0 0 1 .087-.544c.067-.197.14-.31.284-.532l2.488-3.838 2.488 3.838c.144.223.216.335.283.532a2.4 2.4 0 0 1 .088.544c-.001.21-.015.261-.042.366m10.833 0c-.334 1.278-1.469 2.22-2.817 2.22s-2.483-.942-2.817-2.22a1.2 1.2 0 0 1-.042-.366 2.4 2.4 0 0 1 .087-.544c.067-.197.14-.31.284-.532l2.488-3.838 2.488 3.838c.144.223.217.335.284.532a2.4 2.4 0 0 1 .087.544c-.001.21-.015.261-.042.366"/></svg>