<svg xmlns="http://www.w3.org/2000/svg" width="32" height="32" fill="none" viewBox="0 0 32 32"><rect width="32" height="32" fill="#a6e96d" rx="16"/><path stroke="#4a5b3a" stroke-linecap="round" stroke-linejoin="round" stroke-width="1.333" d="M16.667 11.333c0 .737-1.642 1.334-3.667 1.334s-3.667-.597-3.667-1.334m7.334 0C16.667 10.597 15.025 10 13 10s-3.667.597-3.667 1.333m7.334 0v1m-7.334-1v8c0 .737 1.642 1.334 3.667 1.334m0-5.334q-.169 0-.333-.005c-1.87-.061-3.334-.633-3.334-1.328M13 18c-2.025 0-3.667-.597-3.667-1.333m13.334-1C22.667 16.403 21.025 17 19 17s-3.667-.597-3.667-1.333m7.334 0c0-.737-1.642-1.334-3.667-1.334s-3.667.597-3.667 1.334m7.334 0v5C22.667 21.403 21.025 22 19 22s-3.667-.597-3.667-1.333v-5m7.334 2.5c0 .736-1.642 1.333-3.667 1.333s-3.667-.597-3.667-1.333"/></svg>