<svg xmlns="http://www.w3.org/2000/svg" width="24" height="24" fill="none" viewBox="0 0 24 24"><mask id="b" width="24" height="24" x="0" y="0" maskUnits="userSpaceOnUse" style="mask-type:alpha"><g clip-path="url(#a)"><path fill="#000" d="M20.204 4.008c.904.28 1.615 1.101 1.857 2.147C22.498 8.048 22.5 12 22.5 12s0 3.952-.439 5.845c-.242 1.046-.953 1.867-1.857 2.147C18.567 20.5 12 20.5 12 20.5s-6.567 0-8.204-.508c-.904-.28-1.615-1.101-1.857-2.147C1.5 15.952 1.5 12 1.5 12s0-3.952.439-5.845c.242-1.046.953-1.867 1.857-2.147C5.433 3.5 12 3.5 12 3.5s6.567 0 8.204.508M9.798 8.701V15.3l5.715-3.3z"/></g></mask><g mask="url(#b)"><path fill="#1d3209" d="M0 0h24v24H0z"/></g><defs><clipPath id="a"><path fill="#fff" d="M0 0h24v24H0z"/></clipPath></defs></svg>